P1
# Created by GIMP version 2.10.30 PNM plug-in
64 32
1111111111111111111111111111111111111111111111111111111111111111111111
1111111111111111111111111111111111111111111111111111111111111111111111
1111111111111111111111111111111111111111111111111111111111111111111111
1111111111111111111111111111111111111111111111111111111111111111111111
1111111111111111111111111111111111111111111111111111111111111111111111
1111111111111111111111111111111111111111111111111111111111111111111111
1111111111111111111111111111111111111111111111111111111111111111111111
1111111111111111111111111111111111111111111111111111111111111111111111
1111111111111111111111111111111111111111111111111111111111111111111111
1111111111111111111111111111111111111111111111111111111111111111111111
1111111111111111111111111111111111111111111111111111111111111111111111
1111111111111111111111111111111111111111111111111111111111111111111111
1111111111111111111111111111111111111111111111111111111111111111111111
1111111111111111111111111111111111111111111111111111111111111111111111
1111111111111111111111111111111111111111111111111111111111111111111111
1111111111111111111111111111111111111111111111111111111111111111111111
1111111111111111111111111111111111111111111111111011101010011010101111
1111111111111111111111111111111111111111111001001111001010101101011111
1100111111111111111111111111111111111000001010101010111010111111111101
1111111111111111111111111111011010101011001100101111111111111011111111
1111111111111111111110111111111111111111111111111111111111111111111111
1111111111111111111111111111111111111111111111111011111111111111111111
1111011011001111111111111111111111111011011111111111111111111111111100
0011111111111111111111111111111000011111111111111111111111001101011111
1111111111111111111111111000011111111111111111111110111100001111111111
1111111111111111111000011111001111111111111110110000011111111111111111
1111111111111100000110101111111111111110100000011111111111111111111111
1111111100000010111111111111111110100000011111111111111111111111111111
1100000010111111111111111111000000011111111111111111111111111111110000
000111111111111111